<?xml version="1.0" encoding="utf-8"?>
<!-- Generator: Adobe Illustrator 19.0.0, SVG Export Plug-In . SVG Version: 6.00 Build 0)  -->
<svg version="1.1" id="Ebene_1" xmlns="http://www.w3.org/2000/svg" xmlns:xlink="http://www.w3.org/1999/xlink" x="0px" y="0px"
	 viewBox="0 0 960 560" style="enable-background:new 0 0 960 560;" xml:space="preserve">
<style type="text/css">
	.st0{fill:#FF0000;}
	.st1{font-family:'MyriadPro-Regular';}
	.st2{font-size:12px;}
</style>
<g id="XMLID_1_">
	<g id="XMLID_13_">
		<path id="XMLID_3_" d="M472.1,548.8c4.2-51.4,5.7-102.9,4.6-154.5c0-1.9-3-1.9-3,0c1.1,51.5-0.4,103.1-4.6,154.5
			C469,550.7,472,550.7,472.1,548.8L472.1,548.8z"/>
	</g>
</g>
<text id="XMLID_9_" transform="matrix(1 0 0 1 280.8486 353.0908)" class="st0 st1 st2">Sports</text>
<text id="XMLID_11_" transform="matrix(1 0 0 1 332.9697 280.9697)" class="st0 st1 st2">Movies</text>
<text id="XMLID_12_" transform="matrix(1 0 0 1 467.5151 279.7578)" class="st0 st1 st2">Books</text>
<text id="XMLID_17_" transform="matrix(1 0 0 1 554.7881 311.2725)" class="st0 st1 st2">Gaming</text>
<g id="XMLID_19_">
	<g id="XMLID_52_">
		<path id="XMLID_50_" d="M265.1,355.1c-26.2-1-52.7-10-78.6-1.8c-1.8,0.6-1.1,3.5,0.8,2.9c25.6-8.1,51.9,0.9,77.8,1.9
			C267,358.2,267,355.2,265.1,355.1L265.1,355.1z"/>
	</g>
</g>
<g id="XMLID_25_">
	<g id="XMLID_59_">
		<path id="XMLID_56_" d="M269.8,342.9c-6.2-8.8-14.4-15.5-24.3-19.6c-5.9-2.5-11.7-4.8-17.1-8.3c-5.8-3.7-11.2-7.9-16.6-12.2
			c-1.5-1.2-3.6,0.9-2.1,2.1c8.8,7,17.8,14,28.2,18.5c11.9,5.1,21.8,10.2,29.4,21C268.3,346,270.9,344.5,269.8,342.9L269.8,342.9z"
			/>
	</g>
</g>
<g id="XMLID_32_">
	<g id="XMLID_66_">
		<path id="XMLID_57_" d="M317.8,273.4c-13.1,0-26.3-0.5-39.4,0c-5.5,0.2-10.7,2.2-16.2,2.5c-6.8,0.4-13.5-2.3-19.8-4.7
			c-1.8-0.7-2.6,2.2-0.8,2.9c5.5,2.1,11.1,4.1,17,4.7c6.3,0.6,11.8-1.9,18-2.3c13.6-1,27.6-0.1,41.2-0.1
			C319.7,276.4,319.8,273.4,317.8,273.4L317.8,273.4z"/>
	</g>
</g>
<g id="XMLID_33_">
	<g id="XMLID_73_">
		<path id="XMLID_63_" d="M355,261c0.4-16.8-1.7-33.7-6.7-49.8c-3.9-12.6-10.3-25.7-24.1-29.2c-1.9-0.5-2.7,2.4-0.8,2.9
			c14.7,3.8,20.1,19.4,23.6,32.6c3.8,14.2,5.4,28.8,5,43.5C352,262.9,355,262.9,355,261L355,261z"/>
	</g>
</g>
<g id="XMLID_39_">
	<g id="XMLID_80_">
		<path id="XMLID_64_" d="M465.5,269.1c-11-9.5-24.8-14.5-36.2-23.4c-14.5-11.2-17.9-28-20.1-45.3c-0.2-1.9-3.2-1.9-3,0
			c2.1,16.1,4.8,32.7,17.3,44.3c11.8,11,27.8,16,39.9,26.5C464.8,272.4,466.9,270.3,465.5,269.1L465.5,269.1z"/>
	</g>
</g>
<g id="XMLID_40_">
	<g id="XMLID_87_">
		<path id="XMLID_70_" d="M496.9,262.3c7.5,1.7,13.9-2.8,19.6-7.3c5.9-4.6,11.3-9.7,16-15.4c9.9-11.9,17.1-25.7,21.3-40.6
			c0.5-1.9-2.4-2.7-2.9-0.8c-3.7,13.4-9.9,26-18.5,36.9c-3.9,4.9-8.2,9.5-12.9,13.6c-5.6,5-13.7,12.6-21.8,10.7
			C495.8,258.9,495,261.8,496.9,262.3L496.9,262.3z"/>
	</g>
</g>
<g id="XMLID_46_">
	<g id="XMLID_94_">
		<path id="XMLID_71_" d="M576.2,297.2c2-4,4-8.1,6.7-11.7c2.7-3.4,6.1-5.9,9.2-8.9c5.1-4.8,8.8-10.8,11.6-17.2
			c6.7-15.2,8-32,13.5-47.6c0.6-1.8-2.2-2.6-2.9-0.8c-5.6,15.8-6.8,33-13.9,48.3c-3.4,7.3-8.1,13-14.1,18.3
			c-5.8,5.1-9.4,11.1-12.8,18C572.7,297.4,575.3,298.9,576.2,297.2L576.2,297.2z"/>
	</g>
</g>
<g id="XMLID_48_">
	<g id="XMLID_101_">
		<path id="XMLID_77_" d="M613.6,317.7c12.5,1,24.1-4.6,33.7-12.1c5.4-4.2,10.3-9,15.3-13.8c2.6-2.5,5.2-4.9,7.9-7.2
			c3.3-2.8,7.5-7.1,12.1-7.1c1.9,0,1.9-3,0-3c-5.4,0-9.7,4.1-13.6,7.4c-5.7,4.8-10.9,10.1-16.4,15.1c-10.8,9.9-23.7,18.9-39.1,17.7
			C611.7,314.6,611.7,317.6,613.6,317.7L613.6,317.7z"/>
	</g>
</g>
<g id="XMLID_84_">
	<g id="XMLID_109_">
		<path id="XMLID_92_" d="M285,364.5c-8.2,6.8-16,14.1-23,22.1c-3.3,3.7-6.3,7.6-9.8,11c-4.3,4-9.4,6.9-14.5,9.8
			c-1.7,1-0.2,3.5,1.5,2.6c4.3-2.5,8.6-4.9,12.5-8.1c4.3-3.4,7.6-7.8,11.2-11.9c7.4-8.5,15.5-16.3,24.2-23.4
			C288.6,365.4,286.4,363.3,285,364.5L285,364.5z"/>
	</g>
</g>
<text id="XMLID_85_" transform="matrix(1 0 0 1 200.2422 419.1514)" class="st1 st2">Aquatic</text>
<text id="XMLID_91_" transform="matrix(1 0 0 1 136.606 363.3936)" class="st1 st2">Ballsports</text>
<text id="XMLID_93_" transform="matrix(1 0 0 1 152.9697 299.1514)" class="st1 st2">Alpine</text>
<text id="XMLID_98_" transform="matrix(1 0 0 1 189.3335 257.3335)" class="st1 st2">Thriller</text>
<text id="XMLID_99_" transform="matrix(1 0 0 1 291.7578 171.2729)" class="st1 st2">Action</text>
<text id="XMLID_105_" transform="matrix(1 0 0 1 387.5151 189.4546)" class="st1 st2">Novel</text>
<text id="XMLID_106_" transform="matrix(1 0 0 1 529.333 181.5757)" class="st1 st2">Science</text>
<text id="XMLID_107_" transform="matrix(1 0 0 1 697.2119 279.1514)" class="st1 st2">Shooter</text>
<text id="XMLID_108_" transform="matrix(1 0 0 1 628.7275 209.4546)" class="st1 st2">RPG</text>
<g id="XMLID_113_">
	<g id="XMLID_125_">
		<path id="XMLID_129_" d="M559,165.7c8.5-30.2,25.1-60.8,56.3-72.1c1.8-0.7,1-3.6-0.8-2.9c-32.2,11.8-49.6,42.9-58.4,74.2
			C555.6,166.7,558.5,167.5,559,165.7L559,165.7z"/>
	</g>
</g>
<g id="XMLID_114_">
	<g id="XMLID_132_">
		<path id="XMLID_136_" d="M550.4,158.4c-6.1-19.8-12.6-39.7-25.8-56C512.8,87.9,497,77.1,479.4,71c-1.8-0.6-2.6,2.3-0.8,2.9
			c17.1,5.9,32.4,16.5,43.8,30.6c12.9,15.9,19.1,35.4,25.1,54.7C548.1,161,551,160.2,550.4,158.4L550.4,158.4z"/>
	</g>
</g>
<g id="XMLID_115_">
	<g id="XMLID_139_">
		<path id="XMLID_143_" d="M413.2,171.7c2.6-14,9.1-26.7,19-37c1.3-1.4-0.8-3.5-2.1-2.1c-10.2,10.6-17.1,23.8-19.8,38.3
			C409.9,172.8,412.8,173.6,413.2,171.7L413.2,171.7z"/>
	</g>
</g>
<g id="XMLID_116_">
	<g id="XMLID_146_">
		<path id="XMLID_150_" d="M396.4,167.6c-2-19.9-4.2-39.9-11.8-58.6c-0.7-1.8-3.6-1-2.9,0.8c7.5,18.4,9.7,38.2,11.7,57.8
			C393.6,169.6,396.6,169.6,396.4,167.6L396.4,167.6z"/>
	</g>
</g>
<g id="XMLID_117_">
	<g id="XMLID_153_">
		<path id="XMLID_157_" d="M308.4,154.9c-0.9-16.6-2.2-33.2-4.1-49.7c-0.2-1.9-3.2-1.9-3,0c1.8,16.5,3.2,33.1,4.1,49.7
			C305.5,156.8,308.5,156.8,308.4,154.9L308.4,154.9z"/>
	</g>
</g>
<g id="XMLID_118_">
	<g id="XMLID_160_">
		<path id="XMLID_164_" d="M295.1,144.4c-11.4-10.3-22.9-20.5-34.7-30.3c-9.4-7.8-19.9-18.5-32.8-19c-1.9-0.1-1.9,2.9,0,3
			c7.7,0.3,13.9,4.7,19.7,9.2c5.2,4,10.3,8.3,15.3,12.5c10.3,8.7,20.3,17.7,30.4,26.7C294.4,147.8,296.5,145.7,295.1,144.4
			L295.1,144.4z"/>
	</g>
</g>
<g id="XMLID_119_">
	<g id="XMLID_167_">
		<path id="XMLID_171_" d="M216.6,236.7c1.7-13.9,3-27.8,3.9-41.8c0.1-1.9-2.9-1.9-3,0c-0.8,14-2.1,27.9-3.9,41.8
			C213.3,238.6,216.3,238.6,216.6,236.7L216.6,236.7z"/>
	</g>
</g>
<g id="XMLID_121_">
	<g id="XMLID_174_">
		<path id="XMLID_172_" d="M190.8,234c-13.7-13.8-30-24.4-48.3-31.2c-1.8-0.7-2.6,2.2-0.8,2.9c17.7,6.6,33.6,17,46.9,30.4
			C190.1,237.5,192.2,235.4,190.8,234L190.8,234z"/>
	</g>
</g>
<g id="XMLID_123_">
	<g id="XMLID_181_">
		<path id="XMLID_178_" d="M168.7,282.5c-18-12.4-37.2-25.1-60-24.4c-1.9,0.1-1.9,3.1,0,3c22.2-0.7,41,11.9,58.5,24
			C168.7,286.2,170.2,283.6,168.7,282.5L168.7,282.5z"/>
	</g>
</g>
<g id="XMLID_130_">
	<g id="XMLID_220_">
		<path id="XMLID_228_" d="M129.2,357.5c-12.1-0.7-24.2,0.1-36.1,2.4c-7.6,1.5-21.1,2.8-24.7,10.9c-0.8,1.7,1.8,3.3,2.6,1.5
			c2.1-4.6,7.4-5.7,11.9-7c4.9-1.3,9.8-2.4,14.7-3.2c10.4-1.7,21-2.2,31.6-1.6C131.1,360.6,131.1,357.6,129.2,357.5L129.2,357.5z"/>
	</g>
</g>
<g id="XMLID_137_">
	<g id="XMLID_195_">
		<path id="XMLID_185_" d="M195.4,427.6c-9.5,0.8-18.3,3.9-27.1,7.1c-9.8,3.5-19.7,6.6-29.8,9c-20.5,4.9-41.4,7.2-62.4,7.1
			c-1.9,0-1.9,3,0,3c20,0.1,40-2,59.5-6.4c9.8-2.2,19.6-4.9,29.1-8.3c10.1-3.5,20-7.6,30.7-8.6C197.3,430.4,197.3,427.4,195.4,427.6
			L195.4,427.6z"/>
	</g>
</g>
<g id="XMLID_144_">
	<g id="XMLID_202_">
		<path id="XMLID_186_" d="M742.7,293.9c14.3,0.2,28.1,4,42.3,4.7c11,0.5,24.8-0.5,32.1-9.8c1.2-1.5-0.9-3.6-2.1-2.1
			c-7.9,10.1-23.8,9.7-35.3,8.5c-12.4-1.2-24.5-4.1-37-4.3C740.7,290.8,740.7,293.8,742.7,293.9L742.7,293.9z"/>
	</g>
</g>
<g id="XMLID_151_">
	<g id="XMLID_209_">
		<path id="XMLID_192_" d="M716.5,263.4c-2.1-6.7,18.8-8.8,22.7-9.5c8.2-1.3,16.4-1.9,24.7-2c1.9,0,1.9-3,0-3
			c-11.3,0.1-22.6,1.2-33.7,3.6c-5.7,1.2-19.3,2.7-16.5,11.6C714.2,266.1,717.1,265.3,716.5,263.4L716.5,263.4z"/>
	</g>
</g>
<g id="XMLID_158_">
	<g id="XMLID_216_">
		<path id="XMLID_193_" d="M664.9,204.7c14.7-4.2,26.3-15.1,31.5-29.4c0.7-1.8-2.2-2.6-2.9-0.8c-4.8,13.3-15.8,23.4-29.4,27.3
			C662.2,202.4,663,205.3,664.9,204.7L664.9,204.7z"/>
	</g>
</g>
<g id="XMLID_165_">
	<g id="XMLID_223_">
		<path id="XMLID_199_" d="M635.1,193.7c3.8-8.4,8.3-16.5,13.7-24c5.7-8,12.8-16.7,23.6-16.3c1.9,0.1,1.9-2.9,0-3
			c-9.9-0.3-17.2,6.1-23,13.5c-6.8,8.7-12.4,18.3-16.9,28.3C631.7,193.9,634.3,195.4,635.1,193.7L635.1,193.7z"/>
	</g>
</g>
<g id="XMLID_173_">
	<g id="XMLID_231_">
		<path id="XMLID_235_" d="M65.8,465.2c-4.8,9.2-13.7,15.6-22,21.6c-8.3,6-17.1,11.3-26.2,16c-1.7,0.9-0.2,3.5,1.5,2.6
			c10.1-5.2,19.9-11.3,29-18.1c7.7-5.8,15.6-11.9,20.2-20.6C69.3,465,66.7,463.4,65.8,465.2L65.8,465.2z"/>
	</g>
</g>
<g id="XMLID_179_">
	<g id="XMLID_238_">
		<path id="XMLID_242_" d="M50.5,446.3c-9.9-18.8-28.4-32.7-34-53.8c-0.5-1.9-3.4-1.1-2.9,0.8c5.7,21.4,24.2,35.5,34.3,54.5
			C48.8,449.6,51.4,448.1,50.5,446.3L50.5,446.3z"/>
	</g>
</g>
<g id="XMLID_188_">
	<g id="XMLID_245_">
		<path id="XMLID_249_" d="M39.4,452.6c-11.9-2.1-23.9,0.6-33.5,7.9c-1.5,1.1,0,3.8,1.5,2.6c9-6.8,20.1-9.6,31.2-7.6
			C40.5,455.8,41.3,452.9,39.4,452.6L39.4,452.6z"/>
	</g>
</g>
<g id="XMLID_189_">
	<g id="XMLID_252_">
		<path id="XMLID_256_" d="M64.2,376.4c-9.3-18.6-17.1-37.8-23.6-57.6c-0.6-1.8-3.5-1-2.9,0.8c6.5,20,14.5,39.5,23.9,58.3
			C62.5,379.7,65.1,378.2,64.2,376.4L64.2,376.4z"/>
	</g>
</g>
<g id="XMLID_190_">
	<g id="XMLID_259_">
		<path id="XMLID_263_" d="M68.9,358.6c-1.8-28.5-3.4-57-4.9-85.5c-0.1-1.9-3.1-1.9-3,0c1.4,28.5,3.1,57,4.9,85.5
			C66,360.5,69,360.5,68.9,358.6L68.9,358.6z"/>
	</g>
</g>
<g id="XMLID_191_">
	<g id="XMLID_266_">
		<path id="XMLID_270_" d="M98.8,255c-21.7-3.5-38.4-18.4-56.4-29.7c-1.6-1-3.2,1.6-1.5,2.6c18.3,11.4,35.2,26.4,57.2,30
			C99.9,258.2,100.7,255.3,98.8,255L98.8,255z"/>
	</g>
</g>
<g id="XMLID_207_">
	<g id="XMLID_273_">
		<path id="XMLID_277_" d="M93.4,237.5c-4.5-27.7-17.8-53.3-37.9-73c-1.4-1.4-3.5,0.8-2.1,2.1c19.7,19.3,32.7,44.4,37.2,71.6
			C90.8,240.2,93.7,239.4,93.4,237.5L93.4,237.5z"/>
	</g>
</g>
<g id="XMLID_214_">
	<g id="XMLID_280_">
		<path id="XMLID_284_" d="M127.5,200.5c-10.3,0.8-20.4,0.3-30.5-1.4c-1.9-0.3-2.7,2.6-0.8,2.9c10.4,1.8,20.8,2.4,31.3,1.5
			C129.4,203.4,129.4,200.4,127.5,200.5L127.5,200.5z"/>
	</g>
</g>
<g id="XMLID_229_">
	<g id="XMLID_287_">
		<path id="XMLID_291_" d="M120.3,188.9c0.6-21.9-1.1-43.7-4.9-65.2c-0.3-1.9-3.2-1.1-2.9,0.8c3.8,21.3,5.3,42.8,4.8,64.4
			C117.2,190.8,120.2,190.8,120.3,188.9L120.3,188.9z"/>
	</g>
</g>
<g id="XMLID_236_">
	<g id="XMLID_294_">
		<path id="XMLID_298_" d="M216.6,103.6c-6,0.5-11.9,0.2-17.8-0.9c-1.9-0.4-2.7,2.5-0.8,2.9c6.2,1.2,12.3,1.6,18.6,1.1
			C218.5,106.5,218.5,103.5,216.6,103.6L216.6,103.6z"/>
	</g>
</g>
<g id="XMLID_243_">
	<g id="XMLID_301_">
		<path id="XMLID_305_" d="M215.3,86c-12-21.1-24.7-41.8-38.1-62.1c-1.1-1.6-3.7-0.1-2.6,1.5c13.4,20.2,26.2,41,38.1,62.1
			C213.7,89.2,216.3,87.7,215.3,86L215.3,86z"/>
	</g>
</g>
<g id="XMLID_250_">
	<g id="XMLID_308_">
		<path id="XMLID_312_" d="M326.3,97.9c9.1-6.5,15.6-15.5,19.1-26.2c0.6-1.8-2.3-2.6-2.9-0.8c-3.2,9.9-9.3,18.3-17.7,24.4
			C323.3,96.4,324.8,99,326.3,97.9L326.3,97.9z"/>
	</g>
</g>
<g id="XMLID_257_">
	<g id="XMLID_315_">
		<path id="XMLID_319_" d="M294.7,91.2c-6.9-12.5-13.1-25.3-18.6-38.5c-0.7-1.8-3.6-1-2.9,0.8c5.6,13.4,11.8,26.5,18.9,39.2
			C293.1,94.4,295.7,92.9,294.7,91.2L294.7,91.2z"/>
	</g>
</g>
<g id="XMLID_264_">
	<g id="XMLID_322_">
		<path id="XMLID_326_" d="M438.2,125.4c-1-6.4-0.2-12.6,2.1-18.6c0.7-1.8-2.2-2.6-2.9-0.8c-2.5,6.6-3.1,13.3-2.1,20.2
			C435.6,128.1,438.5,127.3,438.2,125.4L438.2,125.4z"/>
	</g>
</g>
<g id="XMLID_271_">
	<g id="XMLID_329_">
		<path id="XMLID_333_" d="M461.4,129.5c8.2,0.3,15.8-2.5,21.8-8c1.4-1.3-0.7-3.4-2.1-2.1c-5.5,5-12.3,7.4-19.7,7.1
			C459.5,126.4,459.5,129.4,461.4,129.5L461.4,129.5z"/>
	</g>
</g>
<g id="XMLID_278_">
	<g id="XMLID_336_">
		<path id="XMLID_340_" d="M394.4,99.4c7.4-9.7,20.7-17.2,19.4-31.2c-0.2-1.9-3.2-1.9-3,0c1.2,13-12,20.5-19,29.7
			C390.6,99.4,393.2,100.9,394.4,99.4L394.4,99.4z"/>
	</g>
</g>
<g id="XMLID_285_">
	<g id="XMLID_343_">
		<path id="XMLID_347_" d="M375.8,86.7c1.3-5.9,2.2-11.9,2.6-17.9c0.5-6.9-0.6-14.2,1.1-21c0.5-1.9-2.4-2.7-2.9-0.8
			c-1.5,5.9-0.7,12-1,18c-0.3,7-1.2,13.9-2.7,20.8C372.5,87.8,375.4,88.6,375.8,86.7L375.8,86.7z"/>
	</g>
</g>
<g id="XMLID_292_">
	<g id="XMLID_350_">
		<path id="XMLID_354_" d="M481.8,62.6c8.2-6.7,29.4-20,18.2-32.9c-1.3-1.5-3.4,0.7-2.1,2.1c9.2,10.5-11.5,23.2-18.2,28.6
			C478.2,61.7,480.4,63.8,481.8,62.6L481.8,62.6z"/>
	</g>
</g>
<g id="XMLID_299_">
	<g id="XMLID_357_">
		<path id="XMLID_361_" d="M449.9,47.5c-5.8-7.7-11.6-15.5-17.4-23.2c-1.1-1.5-3.7,0-2.6,1.5c5.8,7.7,11.6,15.5,17.4,23.2
			C448.5,50.6,451.1,49.1,449.9,47.5L449.9,47.5z"/>
	</g>
</g>
<g id="XMLID_306_">
	<g id="XMLID_364_">
		<path id="XMLID_368_" d="M636,108.3c5.5,0.1,11.3,0.8,16.8,0.3c3.4-0.3,6.2-1.9,6.9-5.4c0.4-1.9-2.5-2.7-2.9-0.8
			c-0.9,4.6-8.3,3.2-11.3,3.1c-3.2-0.1-6.3-0.2-9.5-0.2C634,105.2,634,108.2,636,108.3L636,108.3z"/>
	</g>
</g>
<g id="XMLID_313_">
	<g id="XMLID_371_">
		<path id="XMLID_375_" d="M603.7,77.5c-5.3-6.6-10.6-13.2-16-19.8c-1.2-1.5-3.3,0.6-2.1,2.1c5.3,6.6,10.6,13.2,16,19.8
			C602.8,81.1,604.9,79,603.7,77.5L603.7,77.5z"/>
	</g>
</g>
<g id="XMLID_320_">
	<g id="XMLID_378_">
		<path id="XMLID_382_" d="M695.5,150.7c0.5-12.9,1.1-25.8,1.6-38.8c0.1-1.9-2.9-1.9-3,0c-0.5,12.9-1.1,25.8-1.6,38.8
			C692.5,152.6,695.5,152.6,695.5,150.7L695.5,150.7z"/>
	</g>
</g>
<g id="XMLID_327_">
	<g id="XMLID_385_">
		<path id="XMLID_383_" d="M681.6,133.1c0.4-7.8,1.3-15.5,2.8-23.2c0.4-1.9-2.5-2.7-2.9-0.8c-1.5,7.9-2.5,15.9-2.9,24
			C678.5,135,681.5,135,681.6,133.1L681.6,133.1z"/>
	</g>
</g>
<g id="XMLID_334_">
	<g id="XMLID_392_">
		<path id="XMLID_389_" d="M705.8,191.6c9.6,5,20.6,4.8,30-0.6c1.7-1,0.2-3.6-1.5-2.6c-8.4,4.9-18.3,5.1-26.9,0.6
			C705.6,188.1,704,190.7,705.8,191.6L705.8,191.6z"/>
	</g>
</g>
<g id="XMLID_341_">
	<g id="XMLID_399_">
		<path id="XMLID_390_" d="M713.1,168.5c-1.8-10.7,3.1-21.4,12.3-27c1.6-1,0.1-3.6-1.5-2.6c-10.4,6.4-15.8,18.4-13.7,30.4
			C710.6,171.2,713.5,170.4,713.1,168.5L713.1,168.5z"/>
	</g>
</g>
<g id="XMLID_348_">
	<g id="XMLID_406_">
		<path id="XMLID_396_" d="M779.8,256.1c12.7,2.7,26.9,3.8,36.8-6.2c1.4-1.4-0.8-3.5-2.1-2.1c-9.1,9.1-22.3,7.9-33.9,5.4
			C778.7,252.8,777.9,255.7,779.8,256.1L779.8,256.1z"/>
	</g>
</g>
<g id="XMLID_355_">
	<g id="XMLID_413_">
		<path id="XMLID_397_" d="M802.2,237.3c1-9.7,13.4-16.6,21.4-20c1.8-0.7,1-3.6-0.8-2.9c-9.4,3.9-22.5,11.5-23.6,22.8
			C799,239.3,802,239.2,802.2,237.3L802.2,237.3z"/>
	</g>
</g>
<g id="XMLID_362_">
	<g id="XMLID_420_">
		<path id="XMLID_403_" d="M839.5,291.9c9.8,12.6,33.6,13.3,45.3,3.3c1.5-1.3-0.7-3.4-2.1-2.1c-10.6,9-32.3,7.9-41.1-3.3
			C840.4,288.3,838.3,290.4,839.5,291.9L839.5,291.9z"/>
	</g>
</g>
<g id="XMLID_369_">
	<g id="XMLID_427_">
		<path id="XMLID_404_" d="M833.8,281.6c-0.1-8,6.7-14.4,11.7-19.9c4.8-5.3,10-9.9,16.6-12.9c1.8-0.8,0.2-3.4-1.5-2.6
			c-7.8,3.5-13.8,9.4-19.3,15.8c-5,5.7-10.6,11.6-10.5,19.6C830.8,283.5,833.8,283.5,833.8,281.6L833.8,281.6z"/>
	</g>
</g>
<g id="XMLID_4_">
	<g id="XMLID_34_">
		<path id="XMLID_2_" d="M806.9,419.4c1.9,0,1.9-3,0-3C805,416.4,805,419.4,806.9,419.4L806.9,419.4z"/>
	</g>
</g>
<g id="XMLID_6_">
	<g id="XMLID_434_">
		<path id="XMLID_5_" class="st0" d="M455.1,373.8c-23.4-32-52.2-59.8-85.1-82c-1.6-1.1-3.1,1.5-1.5,2.6
			c32.4,21.9,60.9,49.3,84,80.9C453.6,376.9,456.2,375.4,455.1,373.8L455.1,373.8z"/>
	</g>
</g>
<g id="XMLID_7_">
	<g id="XMLID_38_">
		<path id="XMLID_44_" class="st0" d="M448.2,382.4c-32.5-18.6-68.1-31.1-105.1-36.8c-1.9-0.3-2.7,2.6-0.8,2.9
			c36.8,5.7,72.1,18.1,104.4,36.5C448.4,385.9,449.9,383.3,448.2,382.4L448.2,382.4z"/>
	</g>
</g>
<g id="XMLID_10_">
	<g id="XMLID_410_">
		<path id="XMLID_419_" class="st0" d="M480.8,376.7c0.5-24.6,0.9-49.3,1.4-73.9c0-1.9-3-1.9-3,0c-0.5,24.6-0.9,49.3-1.4,73.9
			C477.8,378.7,480.8,378.7,480.8,376.7L480.8,376.7z"/>
	</g>
</g>
<g id="XMLID_18_">
	<g id="XMLID_426_">
		<path id="XMLID_438_" class="st0" d="M499.1,390.7c11.4-14.5,21.7-30.7,38.7-39c12.6-6.1,30.9-8.4,38.2-21.9
			c0.9-1.7-1.7-3.2-2.6-1.5c-4.1,7.7-12.2,11-20,13.9c-7.4,2.7-14.8,5.4-21.7,9.3c-14.8,8.5-24.5,23.9-34.8,37.1
			C495.8,390.1,497.9,392.2,499.1,390.7L499.1,390.7z"/>
	</g>
</g>
<text id="XMLID_20_" transform="matrix(1 0 0 1 537.2119 380.3633)" class="st0 st1 st2">Abstract</text>
</svg>
